# Blender v2.82 (sub 7) OBJ File: 'bed.blend'
# www.blender.org
mtllib bed_1.mtl
o Cube
v 3.515792 0.373261 -1.835605
v 3.515792 -0.373261 -1.835605
v 3.515792 0.373261 1.835605
v 3.515792 -0.373261 1.835605
v -3.515792 0.373261 -1.835605
v -3.515792 -0.373261 -1.835605
v -3.515792 0.373261 1.835605
v -3.515792 -0.373261 1.835605
v 3.340109 0.373261 1.743880
v -3.340109 0.373261 1.743880
v 3.340109 0.373261 -1.743880
v -3.340109 0.373261 -1.743880
v -3.814275 -0.373261 -1.835605
v -3.814275 -0.373261 1.835605
v -3.814275 0.373261 1.835605
v -3.814275 0.373261 -1.835605
v -3.515792 1.768323 1.835605
v -3.515792 1.768323 -1.835605
v -3.814275 1.768323 1.835605
v -3.814275 1.768323 -1.835605
v 3.696674 0.373261 -1.835605
v 3.696674 -0.373261 -1.835605
v 3.696674 0.373261 1.835605
v 3.696674 -0.373261 1.835605
v 3.515792 0.886076 -1.835605
v 3.515792 0.886076 1.835605
v 3.696674 0.886076 -1.835605
v 3.696674 0.886076 1.835605
v -3.570546 1.905180 1.747252
v -3.570546 1.905180 -1.747252
v -3.759521 1.905180 1.747252
v -3.759521 1.905180 -1.747252
v 3.540809 0.988249 -1.685601
v 3.540809 0.988249 1.685601
v 3.640706 0.988249 -1.685601
v 3.640706 0.988249 1.685601
v -3.505511 -0.462244 2.053716
v -3.505511 0.335707 2.053716
v -3.505511 0.335707 -2.053716
v -3.505511 -0.462244 -2.053716
v -3.824556 -0.462244 2.053716
v -3.824556 0.335707 2.053716
v -3.824556 0.335707 -2.053716
v -3.824556 -0.462244 -2.053716
v -3.505511 1.826877 -2.053716
v -3.824556 1.826877 -2.053716
v -3.824556 1.826877 2.053716
v -3.505511 1.826877 2.053716
v -3.564037 1.973162 -1.954865
v -3.766031 1.973162 -1.954865
v -3.766031 1.973162 1.954865
v -3.564037 1.973162 1.954865
v -3.494268 -0.399640 2.198448
v -3.494268 0.362128 2.198448
v -3.494268 0.362128 -2.198448
v -3.494268 -0.399640 -2.198448
v -3.835799 -0.399640 2.198448
v -3.835799 0.362128 2.198448
v -3.835799 0.362128 -2.198448
v -3.835799 -0.399640 -2.198448
v -3.494268 1.785681 -2.198448
v -3.835799 1.785681 -2.198448
v -3.835799 1.785681 2.198448
v -3.494268 1.785681 2.198448
v -3.556919 1.925333 -2.092631
v -3.773148 1.925333 -2.092631
v -3.773148 1.925333 2.092631
v -3.556919 1.925333 2.092631
v 3.508832 0.364412 -2.006018
v 3.508832 -0.451416 -2.006018
v 3.508832 0.364412 2.006018
v 3.508832 -0.451416 2.006018
v 3.703634 0.364412 -2.006018
v 3.703634 -0.451416 -2.006018
v 3.703634 0.364412 2.006018
v 3.703634 -0.451416 2.006018
v 3.508832 0.924836 2.006018
v 3.703634 0.924836 2.006018
v 3.703634 0.924836 -2.006018
v 3.508832 0.924836 -2.006018
v 3.536172 1.036494 1.842089
v 3.645343 1.036494 1.842089
v 3.645343 1.036494 -1.842089
v 3.536172 1.036494 -1.842089
v 3.545627 0.369156 -2.117309
v 3.545627 -0.409516 -2.117309
v 3.545627 0.369156 2.117309
v 3.545627 -0.409516 2.117309
v 3.666839 0.369156 -2.117309
v 3.666839 -0.409516 -2.117309
v 3.666839 0.369156 2.117309
v 3.666839 -0.409516 2.117309
v 3.545627 0.904056 2.117309
v 3.666839 0.904056 2.117309
v 3.666839 0.904056 -2.117309
v 3.545627 0.904056 -2.117309
v 3.560688 1.010630 1.944285
v 3.620828 1.010630 1.944285
v 3.620828 1.010630 -1.944285
v 3.560688 1.010630 -1.944285
vt 0.216585 0.990266
vt 0.798836 0.951437
vt 0.813756 0.990266
vt 0.958862 0.020723
vt 0.017959 0.918937
vt 0.017959 0.020723
vt 0.040587 0.160958
vt 0.976115 0.901789
vt 0.040587 0.901789
vt 0.171695 0.759246
vt 0.315052 0.990196
vt 0.171695 0.990196
vt 0.434828 0.949410
vt 0.325745 0.907712
vt 0.383761 0.882255
vt 0.032632 0.954013
vt 0.964839 0.042001
vt 0.964839 0.954014
vt 0.813756 0.060638
vt 0.231505 0.119442
vt 0.216585 0.060638
vt 0.824929 0.982870
vt 0.787663 0.044855
vt 0.824929 0.020818
vt 0.201345 0.020818
vt 0.246746 0.958834
vt 0.201345 0.982870
vt 0.348204 0.050199
vt 0.025909 0.950787
vt 0.025909 0.050199
vt 0.327852 0.753305
vt 0.321557 0.781111
vt 0.321766 0.753305
vt 0.206071 0.689914
vt 0.165440 0.246804
vt 0.206071 0.258426
vt 0.171695 1.000000
vt 0.398232 0.042738
vt 0.521462 0.960273
vt 0.398232 0.982900
vt 0.273220 0.780612
vt 0.357720 0.674683
vt 0.354906 0.780612
vt 0.950492 0.950787
vt 0.348204 0.950787
vt 0.544735 0.048662
vt 0.620771 0.316905
vt 0.544735 0.331123
vt 0.404764 0.148206
vt 0.911121 0.854541
vt 0.911121 0.148206
vt 0.502736 0.851976
vt 0.553991 0.527476
vt 0.553991 0.876078
vt 0.079198 0.961272
vt 0.171685 0.605595
vt 0.167582 0.961272
vt 0.315052 0.753305
vt 0.315052 0.759246
vt 0.482792 0.855610
vt 0.280943 0.540047
vt 0.482792 0.545410
vt 0.875435 0.898173
vt 0.062376 0.088474
vt 0.875450 0.088481
vt 0.056928 0.854541
vt 0.404764 0.854541
vt 0.053625 0.708292
vt 0.221438 0.499262
vt 0.213993 0.708292
vt 0.523584 1.004426
vt 0.469649 0.001074
vt 0.523584 0.001074
vt 0.544735 0.858972
vt 0.620771 0.881118
vt 0.257645 0.042398
vt 0.320935 0.900997
vt 0.257645 0.922170
vt 0.083482 0.644446
vt 0.157826 0.558732
vt 0.155350 0.644446
vt 0.453067 0.023528
vt 0.539659 0.983712
vt 0.453070 0.983712
vt 0.267317 0.025411
vt 0.358034 0.914167
vt 0.267317 0.952028
vt 0.502736 0.068627
vt 0.502736 0.532988
vt 0.268272 0.032403
vt 0.357079 0.903088
vt 0.268272 0.940179
vt 0.671225 0.865521
vt 0.240214 0.941075
vt 0.223389 0.982490
vt 0.177638 0.923753
vt 0.515268 0.314366
vt 0.570304 0.005307
vt 0.570304 0.325462
vt 0.515268 0.941075
vt 0.530065 0.982490
vt 0.477679 1.002597
vt 0.671225 0.038662
vt 0.671225 0.326892
vt 0.836225 0.932889
vt 0.497276 0.915061
vt 0.508818 0.932889
vt 0.398731 0.974030
vt 0.432328 0.916473
vt 0.321347 0.753305
vt 0.315052 0.781111
vt 0.315262 0.753305
vt 0.372717 0.974030
vt 0.334517 0.916473
vt 0.240214 0.314366
vt 0.334517 0.330157
vt 0.513934 0.910802
vt 0.586310 0.936519
vt 0.432328 0.016409
vt 0.432328 0.330157
vt 0.222529 0.732282
vt 0.165440 0.708018
vt 0.334517 0.016409
vt 0.240214 -0.020996
vt 0.206071 0.027529
vt 0.165440 0.000000
vt 0.946917 0.964480
vt 0.408642 0.657106
vt 0.946917 0.657106
vt 0.395735 0.325428
vt 0.949302 0.038011
vt 0.395735 0.038011
vt 0.949302 0.862538
vt 0.949302 0.325428
vt 0.946917 0.082701
vt 0.408642 0.082701
vt 0.848174 0.026531
vt 0.395735 0.862538
vt 0.847755 0.915061
vt 0.177637 0.005307
vt 0.634336 0.918415
vt 0.138479 0.695268
vt 0.138479 0.254968
vt 0.158191 0.738506
vt 0.570304 0.923753
vt 0.177638 0.325462
vt 0.658808 0.753149
vt 0.652074 0.733597
vt 0.659037 0.733597
vt 0.836953 0.007466
vt 0.507385 0.026531
vt 0.518601 0.007466
vt 0.665771 0.000000
vt 0.659037 0.019552
vt 0.659266 0.000000
vt 0.138479 0.019355
vt 0.599679 0.522750
vt 0.673036 0.868803
vt 0.599679 0.882072
vt 0.386713 0.531954
vt 0.244349 0.886535
vt 0.244349 0.535112
vt 0.535424 0.929500
vt 0.504687 0.945563
vt 0.587463 0.863192
vt 0.280943 0.879045
vt 0.354064 0.931057
vt 0.149121 0.866527
vt 0.149121 0.071953
vt 0.280943 0.046557
vt 0.335862 0.753305
vt 0.332033 0.777700
vt 0.332175 0.753305
vt 0.325745 0.539521
vt 0.383761 0.545343
vt 0.388477 0.922823
vt 0.491625 0.953749
vt 0.328203 0.777700
vt 0.332033 0.753305
vt 0.331891 0.777700
vt 0.487351 0.049793
vt 0.487351 0.528434
vt 0.487351 0.857231
vt 0.660468 0.917491
vt 0.482792 0.093842
vt 0.383761 0.054888
vt 0.325745 0.003534
vt 0.457621 0.915558
vt 0.122818 0.441005
vt 0.377699 0.127823
vt 0.377699 0.441005
vt 0.377702 0.896915
vt 0.467459 0.450868
vt 0.331545 0.973312
vt 0.467453 0.973312
vt 0.467459 0.091980
vt 0.383139 0.020964
vt 0.331547 0.091980
vt 0.331545 0.450868
vt 0.219570 0.065851
vt 0.346029 0.065851
vt 0.512719 0.921903
vt 0.515940 0.908798
vt 0.516690 0.921903
vt 0.168015 0.050959
vt 0.508747 0.921903
vt 0.511969 0.908798
vt 0.512719 0.921903
vt 0.244349 0.023536
vt 0.386713 -0.004033
vt 0.355652 0.003899
vt 0.450570 0.020964
vt 0.478061 0.003899
vt 0.587463 0.046106
vt 0.587463 0.530466
vt 0.386713 0.900145
vt 0.465681 0.956569
vt 0.673036 0.026592
vt 0.673036 0.525846
vt 0.558988 0.937202
vt 0.149121 0.542968
vt 0.231505 0.958834
vt 0.798836 0.044855
vt 0.798836 0.958833
vt 0.231505 0.951438
vt 0.958862 0.918937
vt 0.976115 0.160958
vt 0.381554 0.981101
vt 0.032632 0.041999
vt 0.798836 0.119442
vt 0.787664 0.958833
vt 0.246745 0.044855
vt 0.328061 0.781111
vt 0.315052 1.000000
vt 0.521462 0.065365
vt 0.270407 0.674683
vt 0.950492 0.050199
vt 0.620771 0.014984
vt 0.075095 0.605595
vt 0.171695 0.753305
vt 0.062362 0.898166
vt 0.056928 0.148206
vt 0.046181 0.499262
vt 0.469650 1.004426
vt 0.320935 0.063571
vt 0.081007 0.558732
vt 0.539659 0.023528
vt 0.358034 0.063272
vt 0.553991 0.020004
vt 0.357079 0.069494
vt 0.282953 1.002597
vt 0.515268 -0.020996
vt 0.321557 0.781111
vt 0.183855 0.753305
vt 0.408642 0.964480
vt 0.652303 0.753149
vt 0.666000 0.019552
vt 0.475111 0.946668
vt 0.336004 0.777700
vt 0.328061 0.753305
vt 0.599679 -0.000327
vt 0.122818 0.127823
vt 0.122818 0.896915
vt 0.513469 0.908798
vt 0.397576 0.050959
vt 0.509498 0.908798
vt 0.596411 0.973534
vt 0.231505 0.044855
vn 0.0000 1.0000 0.0000
vn 0.0000 0.0000 1.0000
vn 1.0000 0.0000 0.0000
vn 0.0000 -1.0000 0.0000
vn -0.9880 0.1369 0.0715
vn 0.0000 0.0000 -1.0000
vn -1.0000 0.0000 0.0000
vn 0.0000 -0.9259 0.3777
vn 0.9989 0.0000 -0.0471
vn -0.9285 0.3715 0.0000
vn 0.0000 0.9503 -0.3112
vn 0.9989 0.0000 0.0471
vn -0.9992 0.0000 -0.0408
vn 0.0000 0.9556 0.2946
vn 0.9992 0.0000 -0.0408
vn 0.0000 0.9556 -0.2946
vn 0.9284 0.3715 0.0000
vn 0.0000 0.9503 0.3112
vn 0.8770 0.4804 0.0000
vn -0.9713 0.2378 0.0000
vn 0.9970 0.0000 0.0774
vn -0.8941 0.4443 -0.0570
vn -0.9970 0.0000 -0.0774
vn -0.8978 0.4283 0.1023
vn 0.0000 0.9447 0.3280
vn -0.9475 0.2940 -0.1260
vn -0.9989 0.0000 -0.0471
vn 0.0000 -0.9259 -0.3777
vn -0.9463 0.2981 0.1246
vn -0.9989 0.0000 0.0471
vn 0.9475 0.2940 0.1260
vn 0.9463 0.2981 -0.1246
vn 0.0000 0.6039 -0.7970
vn 0.0000 0.6039 0.7970
vn -0.9970 0.0000 0.0774
vn 0.8978 0.4283 -0.1023
vn 0.9970 0.0000 -0.0774
vn 0.8941 0.4443 0.0570
vn 0.0000 -0.9178 -0.3970
vn 0.0000 0.9447 -0.3280
vn 0.0000 -0.9178 0.3970
vn 0.9495 0.0000 -0.3139
vn -0.9495 0.0000 -0.3139
vn -0.6847 0.6505 0.3289
vn -0.9495 0.0000 0.3139
vn 0.5522 0.7674 0.3258
vn 0.9495 0.0000 0.3139
vn 0.0000 -0.9090 -0.4169
vn -0.9992 0.0000 0.0408
vn 0.9425 0.3105 0.1237
vn 0.0000 -0.9090 0.4169
vn 0.9992 0.0000 0.0408
vn 0.9329 0.3411 -0.1157
vn -0.9880 0.1369 -0.0715
vn 0.0000 0.8514 -0.5244
vn 0.0000 0.8514 0.5244
vn 0.0000 -0.9359 0.3523
vn 0.0000 0.9694 0.2454
vn 0.0000 -0.9359 -0.3523
vn 0.0000 0.9694 -0.2454
vn -0.6728 0.6546 -0.3447
vn 0.5517 0.7675 -0.3266
vn 0.9285 0.3715 0.0000
vn -0.8978 0.4283 -0.1023
vn -0.8941 0.4443 0.0570
vn -0.9463 0.2981 -0.1246
vn -0.9475 0.2940 0.1260
vn 0.9463 0.2981 0.1246
vn 0.9475 0.2940 -0.1260
vn 0.8941 0.4443 -0.0570
vn 0.8978 0.4283 0.1023
vn -0.6728 0.6546 0.3447
vn 0.5517 0.7675 0.3266
vn 0.9329 0.3411 0.1157
vn 0.9425 0.3105 -0.1237
vn -0.6847 0.6505 -0.3289
vn 0.5522 0.7674 -0.3258
usemtl Material
s off
f 7/1/1 12/2/1 5/3/1
f 3/4/2 8/5/2 4/6/2
f 5/7/3 17/8/3 7/9/3
f 2/10/4 8/11/4 6/12/4
f 33/13/5 80/14/5 25/15/5
f 5/16/6 2/17/6 6/18/6
f 1/19/1 9/20/1 3/21/1
f 5/22/1 11/23/1 1/24/1
f 3/25/1 10/26/1 7/27/1
f 15/28/7 13/29/7 14/30/7
f 13/31/8 40/32/8 6/33/8
f 17/34/9 38/35/9 7/36/9
f 8/11/4 13/37/4 6/12/4
f 19/38/10 32/39/10 20/40/10
f 31/41/11 52/42/11 29/43/11
f 15/28/7 20/44/7 16/45/7
f 6/46/12 39/47/12 5/48/12
f 21/49/3 24/50/3 22/51/3
f 26/52/13 71/53/13 77/54/13
f 35/55/14 84/56/14 33/57/14
f 2/10/4 24/58/4 4/59/4
f 28/60/15 75/61/15 23/62/15
f 3/63/7 25/64/7 1/65/7
f 21/49/3 28/66/3 23/67/3
f 34/68/16 82/69/16 36/70/16
f 30/71/1 31/72/1 29/73/1
f 18/74/12 39/47/12 45/75/12
f 18/76/17 29/77/17 17/78/17
f 30/79/18 50/80/18 32/81/18
f 34/82/1 35/83/1 33/84/1
f 27/85/19 36/86/19 28/87/19
f 4/88/13 71/53/13 3/89/13
f 26/90/20 33/91/20 25/92/20
f 39/47/21 61/93/21 45/75/21
f 46/94/22 66/95/22 62/96/22
f 42/97/23 57/98/23 58/99/23
f 47/100/24 67/101/24 51/102/24
f 39/47/21 56/103/21 55/104/21
f 51/105/25 68/106/25 52/107/25
f 31/108/26 47/100/26 51/102/26
f 19/109/27 42/97/27 47/100/27
f 8/110/28 41/111/28 14/112/28
f 32/113/29 46/94/29 20/114/29
f 20/114/30 43/115/30 16/116/30
f 30/117/31 45/75/31 49/118/31
f 14/119/27 42/97/27 15/120/27
f 29/121/32 48/122/32 17/34/32
f 13/123/30 43/115/30 44/124/30
f 8/125/9 38/35/9 37/126/9
f 56/127/6 59/128/6 55/129/6
f 54/130/2 57/131/2 53/132/2
f 54/130/2 63/133/2 58/134/2
f 59/128/6 61/135/6 55/129/6
f 62/136/33 65/137/33 61/135/33
f 64/138/34 67/139/34 63/133/34
f 43/115/35 60/140/35 44/124/35
f 45/75/36 65/141/36 49/118/36
f 38/35/37 64/142/37 54/143/37
f 48/122/38 68/144/38 64/142/38
f 42/97/23 63/145/23 47/100/23
f 43/115/35 62/96/35 59/146/35
f 40/147/39 60/148/39 56/149/39
f 49/150/40 66/151/40 50/152/40
f 37/153/41 57/154/41 41/155/41
f 38/35/37 53/156/37 37/126/37
f 73/157/42 95/158/42 79/159/42
f 69/160/43 96/161/43 85/162/43
f 77/54/44 97/163/44 81/164/44
f 71/53/45 93/165/45 77/54/45
f 78/166/46 98/167/46 94/168/46
f 75/61/47 92/169/47 76/170/47
f 24/171/48 72/172/48 4/173/48
f 25/15/49 69/174/49 1/175/49
f 35/176/50 79/159/50 83/177/50
f 2/178/51 74/179/51 22/180/51
f 22/181/52 73/157/52 21/182/52
f 27/183/52 73/157/52 79/159/52
f 36/184/53 78/166/53 28/60/53
f 24/185/15 75/61/15 76/170/15
f 2/186/49 69/174/49 70/187/49
f 34/188/54 77/54/54 81/164/54
f 91/189/2 93/190/2 87/191/2
f 88/192/2 91/189/2 87/191/2
f 85/193/6 90/194/6 86/195/6
f 96/196/55 99/197/55 95/198/55
f 85/193/6 95/198/6 89/199/6
f 93/190/56 98/200/56 97/201/56
f 76/202/57 88/203/57 72/204/57
f 82/205/58 97/201/58 98/200/58
f 70/206/59 90/207/59 74/208/59
f 69/160/43 86/209/43 70/210/43
f 83/211/60 100/212/60 84/213/60
f 71/53/45 88/214/45 87/215/45
f 80/216/61 100/217/61 96/161/61
f 73/157/42 90/218/42 89/219/42
f 79/159/62 99/220/62 83/177/62
f 75/61/47 94/168/47 91/221/47
f 10/222/1 11/223/1 12/224/1
f 7/1/1 10/225/1 12/2/1
f 3/4/2 7/226/2 8/5/2
f 5/7/3 18/227/3 17/8/3
f 2/10/4 4/59/4 8/11/4
f 33/13/5 84/228/5 80/14/5
f 5/16/6 1/229/6 2/17/6
f 1/19/1 11/230/1 9/20/1
f 5/22/1 12/231/1 11/23/1
f 3/25/1 9/232/1 10/26/1
f 15/28/7 16/45/7 13/29/7
f 13/31/8 44/233/8 40/32/8
f 17/34/9 48/122/9 38/35/9
f 8/11/4 14/234/4 13/37/4
f 19/38/10 31/235/10 32/39/10
f 31/41/11 51/236/11 52/42/11
f 15/28/7 19/237/7 20/44/7
f 6/46/12 40/238/12 39/47/12
f 21/49/3 23/67/3 24/50/3
f 26/52/13 3/89/13 71/53/13
f 35/55/14 83/239/14 84/56/14
f 2/10/4 22/240/4 24/58/4
f 28/60/15 78/166/15 75/61/15
f 3/63/7 26/241/7 25/64/7
f 21/49/3 27/242/3 28/66/3
f 34/68/16 81/243/16 82/69/16
f 30/71/1 32/244/1 31/72/1
f 18/74/12 5/48/12 39/47/12
f 18/76/63 30/245/63 29/77/63
f 30/79/18 49/246/18 50/80/18
f 34/82/1 36/247/1 35/83/1
f 27/85/19 35/248/19 36/86/19
f 4/88/13 72/249/13 71/53/13
f 26/90/20 34/250/20 33/91/20
f 39/47/21 55/104/21 61/93/21
f 46/94/64 50/251/64 66/95/64
f 42/97/23 41/252/23 57/98/23
f 47/100/65 63/145/65 67/101/65
f 39/47/21 40/238/21 56/103/21
f 51/105/25 67/139/25 68/106/25
f 31/108/66 19/109/66 47/100/66
f 19/109/27 15/120/27 42/97/27
f 8/110/28 37/253/28 41/111/28
f 32/113/67 50/251/67 46/94/67
f 20/114/30 46/94/30 43/115/30
f 30/117/68 18/74/68 45/75/68
f 14/119/27 41/252/27 42/97/27
f 29/121/69 52/254/69 48/122/69
f 13/123/30 16/116/30 43/115/30
f 8/125/9 7/36/9 38/35/9
f 56/127/6 60/255/6 59/128/6
f 54/130/2 58/134/2 57/131/2
f 54/130/2 64/138/2 63/133/2
f 59/128/6 62/136/6 61/135/6
f 62/136/33 66/151/33 65/137/33
f 64/138/34 68/106/34 67/139/34
f 43/115/35 59/146/35 60/140/35
f 45/75/70 61/93/70 65/141/70
f 38/35/37 48/122/37 64/142/37
f 48/122/71 52/254/71 68/144/71
f 42/97/23 58/99/23 63/145/23
f 43/115/35 46/94/35 62/96/35
f 40/147/39 44/256/39 60/148/39
f 49/150/40 65/137/40 66/151/40
f 37/153/41 53/257/41 57/154/41
f 38/35/37 54/143/37 53/156/37
f 73/157/42 89/219/42 95/158/42
f 69/160/43 80/216/43 96/161/43
f 77/54/72 93/165/72 97/163/72
f 71/53/45 87/215/45 93/165/45
f 78/166/73 82/258/73 98/167/73
f 75/61/47 91/221/47 92/169/47
f 24/171/48 76/259/48 72/172/48
f 25/15/49 80/14/49 69/174/49
f 35/176/74 27/183/74 79/159/74
f 2/178/51 70/260/51 74/179/51
f 22/181/52 74/261/52 73/157/52
f 27/183/52 21/182/52 73/157/52
f 36/184/75 82/258/75 78/166/75
f 24/185/15 23/62/15 75/61/15
f 2/186/49 1/175/49 69/174/49
f 34/188/54 26/52/54 77/54/54
f 91/189/2 94/262/2 93/190/2
f 88/192/2 92/263/2 91/189/2
f 85/193/6 89/199/6 90/194/6
f 96/196/55 100/212/55 99/197/55
f 85/193/6 96/196/6 95/198/6
f 93/190/56 94/262/56 98/200/56
f 76/202/57 92/264/57 88/203/57
f 82/205/58 81/265/58 97/201/58
f 70/206/59 86/266/59 90/207/59
f 69/160/43 85/162/43 86/209/43
f 83/211/60 99/197/60 100/212/60
f 71/53/45 72/249/45 88/214/45
f 80/216/76 84/267/76 100/217/76
f 73/157/42 74/261/42 90/218/42
f 79/159/77 95/158/77 99/220/77
f 75/61/47 78/166/47 94/168/47
f 10/222/1 9/268/1 11/223/1
