# Blender v2.82 (sub 7) OBJ File: 'table.blend'
# www.blender.org
mtllib table.mtl
o Cube
v 1.181106 0.515918 -1.798619
v 1.181106 -0.515918 -1.798619
v 1.181106 0.515918 1.798619
v 1.181106 -0.515918 1.798619
v -1.181106 0.515918 -1.798619
v -1.181106 -0.515918 -1.798619
v -1.181106 0.515918 1.798619
v -1.181106 -0.515918 1.798619
v 1.452249 0.543777 1.595648
v -1.218819 0.561810 2.026248
v 1.450883 0.543777 -1.509836
v -1.218747 0.561810 -2.026239
v 1.392610 0.807765 1.515007
v -1.153698 0.874513 1.923335
v 1.391313 0.807765 -1.432126
v -1.153631 0.874513 -1.922513
v -0.960651 -0.358086 1.855203
v -0.960651 0.358086 1.855203
v 0.960651 0.358086 1.855203
v 0.960651 -0.358086 1.855203
v 1.218264 0.391819 -1.600716
v 1.218264 -0.391819 -1.600716
v 1.218264 0.391819 1.600716
v 1.218264 -0.391819 1.600716
v 1.011064 -0.376877 -1.855203
v -1.011064 -0.376877 -1.855203
v 1.011064 0.376877 -1.855203
v -1.011064 0.376877 -1.855203
v -1.218264 -0.426675 -1.659570
v -1.218264 -0.426675 1.659570
v -1.218264 0.426675 1.659570
v -1.218264 0.426675 -1.659570
v 1.045191 0.391819 -1.600716
v 1.045191 -0.391819 -1.600716
v 1.045191 0.391819 1.600716
v 1.045191 -0.391819 1.600716
v 1.011064 -0.376877 -1.691040
v -1.011064 -0.376877 -1.691040
v 1.011064 0.376877 -1.691040
v -1.011064 0.376877 -1.691040
v -1.112123 -0.426675 -1.659570
v -1.112123 -0.426675 1.659570
v -1.112123 0.426675 1.659570
v -1.112123 0.426675 -1.659570
v -0.960651 -0.358086 1.785568
v -0.960651 0.358086 1.785568
v 0.960651 0.358086 1.785568
v 0.960651 -0.358086 1.785568
v 0.000000 -0.532149 -1.855204
v 0.000000 0.532149 1.855204
v 0.000000 -0.532149 1.855204
v 0.000000 0.532149 -1.855204
v -0.000365 0.576166 2.591619
v -0.000365 0.576166 -2.591621
v 0.002695 0.895208 2.459922
v 0.002695 0.895208 -2.459022
v 0.000000 0.358086 1.855203
v 0.000000 -0.358086 1.855203
v 0.000000 -0.376877 -1.855203
v 0.000000 0.376877 -1.855203
v 0.000000 -0.376877 -1.691040
v 0.000000 0.376877 -1.691040
v 0.000000 0.358086 1.785568
v 0.000000 -0.358086 1.785568
v -0.609132 -0.532149 -1.855204
v -0.609132 0.532149 1.855204
v -0.813140 0.561810 2.476540
v -0.768705 0.874513 2.350701
v -0.480326 0.358086 1.855203
v -0.505532 -0.376877 -1.855203
v -0.505532 -0.376877 -1.691040
v -0.480326 0.358086 1.785568
v -0.609132 -0.532149 1.855204
v -0.609132 0.532149 -1.855204
v -0.813140 0.561810 -2.476540
v -0.768705 0.874513 -2.349818
v -0.480326 -0.358086 1.855203
v -0.505532 0.376877 -1.855203
v -0.505532 0.376877 -1.691040
v -0.480326 -0.358086 1.785568
v 0.609132 -0.532149 1.855204
v 0.609132 0.526204 -1.855204
v 0.813140 0.555864 -2.476540
v 0.774649 0.868871 -2.349818
v 0.480326 -0.358086 1.855203
v 0.505532 0.376877 -1.855203
v 0.505532 0.376877 -1.691040
v 0.480326 -0.358086 1.785568
v 0.609132 -0.532149 -1.855204
v 0.609132 0.526204 1.855204
v 0.813140 0.555864 2.476540
v 0.774649 0.868871 2.350701
v 0.480326 0.358086 1.855203
v 0.505532 -0.376877 -1.855203
v 0.505532 -0.376877 -1.691040
v 0.480326 0.358086 1.785568
v -1.260548 0.718526 2.091017
v -1.260475 0.718526 -2.091528
v 1.493833 0.673971 1.646378
v 1.492423 0.673971 -1.558772
v -0.003051 0.737120 -2.675084
v -0.003051 0.737120 2.674505
v -0.841850 0.718526 2.555739
v -0.841850 0.718526 -2.556303
v 0.836623 0.712389 -2.556303
v 0.836623 0.712389 2.555739
v -1.181106 -0.515918 0.000000
v 1.181106 0.515918 0.000000
v -1.181106 0.515918 0.000000
v 1.181106 -0.515918 0.000000
v 1.626280 0.518024 0.043881
v -1.218783 0.561810 0.000000
v 1.546327 0.832960 0.042085
v -1.153665 0.874513 0.000441
v 1.218264 0.391819 0.000000
v 1.218264 -0.391819 0.000000
v -1.218264 -0.426675 0.000000
v -1.218264 0.426675 0.000000
v 1.045191 0.391819 0.000000
v 1.045191 -0.391819 0.000000
v -1.112123 -0.426675 0.000000
v -1.112123 0.426675 0.000000
v 0.002628 0.891590 0.000441
v 0.000000 -0.532149 0.000000
v -0.609132 -0.532149 0.000000
v -0.768705 0.874513 0.000441
v 0.774649 0.868871 0.000441
v 0.609132 -0.532149 0.000000
v 1.675860 0.673334 0.045008
v -1.260512 0.718526 -0.000282
v 1.255915 0.000000 -1.912914
v -1.255012 0.000000 1.910788
v 1.255915 0.000000 1.910788
v -1.255012 0.000000 -1.912914
v -1.020678 0.000000 1.970935
v 1.021581 0.000000 1.970935
v 1.295411 0.000000 -1.702552
v 1.295411 0.000000 1.700427
v 1.075167 0.000000 -1.973060
v -1.074264 0.000000 -1.973060
v -1.294508 0.000000 1.762986
v -1.294508 0.000000 -1.765112
v 1.111443 0.000000 -1.702552
v 1.111443 0.000000 1.700427
v 1.075167 0.000000 -1.798562
v -1.074264 0.000000 -1.798562
v -1.181685 0.000000 1.762986
v -1.181685 0.000000 -1.765112
v -1.020678 0.000000 1.896916
v 1.021581 0.000000 1.896916
v 0.000451 0.000000 1.896916
v 0.000451 0.000000 -1.798562
v -0.536906 0.000000 -1.798562
v -0.510113 0.000000 1.896916
v 0.511016 0.000000 1.896916
v 0.537809 0.000000 -1.798562
v -1.181685 0.000000 -0.001063
v 1.111443 0.000000 -0.001063
vt 0.686343 0.814111
vt 0.828771 0.801309
vt 0.838911 0.867147
vt 0.738301 0.917895
vt 0.675119 0.691839
vt 0.670020 0.873988
vt 0.620473 0.803799
vt 0.620473 0.650813
vt 0.421783 0.839136
vt 0.524854 0.839137
vt 0.516885 0.881244
vt 0.421783 0.881243
vt 0.682840 0.496980
vt 0.890032 0.495091
vt 0.891817 0.936711
vt 0.684682 0.952494
vt 0.522857 0.152916
vt 0.617766 0.152916
vt 0.594937 0.196278
vt 0.522857 0.196278
vt 0.866970 0.273911
vt 0.861537 0.085179
vt 0.787999 0.141281
vt 0.787999 0.308098
vt 0.408478 0.458967
vt 0.392004 0.850887
vt 0.318443 0.843916
vt 0.334918 0.451996
vt 0.376377 0.194341
vt 0.233901 0.207143
vt 0.122556 0.170244
vt 0.324525 0.090555
vt 0.435407 0.007246
vt 0.332337 0.007246
vt 0.309926 0.000000
vt 0.435408 0.000000
vt 0.236969 0.510928
vt 0.240036 0.814712
vt 0.129337 0.841840
vt 0.125947 0.506042
vt 0.185142 0.498790
vt 0.060373 0.499015
vt 0.059974 0.082123
vt 0.184690 0.027287
vt 0.582524 0.285424
vt 0.566533 0.084241
vt 0.661264 0.084160
vt 0.677255 0.285343
vt 0.319693 0.722339
vt 0.322821 0.838827
vt 0.243435 0.838929
vt 0.240308 0.722441
vt 0.504141 0.536985
vt 0.504141 0.943423
vt 0.434320 0.943423
vt 0.434320 0.536985
vt 0.253492 0.817205
vt 0.253492 0.908776
vt 0.249502 0.908776
vt 0.249502 0.817205
vt 0.340990 0.303817
vt 0.346082 0.121614
vt 0.395637 0.191856
vt 0.395637 0.344842
vt 0.508051 0.873988
vt 0.346082 0.873988
vt 0.395637 0.803799
vt 0.508055 0.803799
vt 0.508051 0.121614
vt 0.670020 0.121614
vt 0.620473 0.191856
vt 0.508055 0.191856
vt 0.219776 0.519068
vt 0.219776 0.911926
vt 0.157992 0.911926
vt 0.157992 0.519068
vt 0.522857 0.941089
vt 0.427947 0.941089
vt 0.450777 0.897728
vt 0.522857 0.897728
vt 0.617766 0.547003
vt 0.617766 0.941089
vt 0.594937 0.897728
vt 0.594937 0.547003
vt 0.427947 0.547003
vt 0.427947 0.152916
vt 0.450777 0.196278
vt 0.450777 0.547003
vt 0.345434 0.460085
vt 0.345434 0.420910
vt 0.436191 0.420910
vt 0.436191 0.460085
vt 0.588696 0.085179
vt 0.315856 0.085179
vt 0.389380 0.141281
vt 0.588689 0.141281
vt 0.588697 0.864668
vt 0.861537 0.864668
vt 0.787999 0.808548
vt 0.588689 0.808548
vt 0.307266 0.675918
vt 0.315857 0.864668
vt 0.389380 0.808548
vt 0.389380 0.641731
vt 0.823743 0.546945
vt 0.823743 0.611975
vt 0.713065 0.611975
vt 0.713065 0.546945
vt 0.228374 0.497855
vt 0.228374 0.850552
vt 0.120579 0.823284
vt 0.120579 0.497855
vt 0.731149 0.230701
vt 0.731149 0.145159
vt 0.914759 0.159956
vt 0.914759 0.230701
vt 0.411984 0.632050
vt 0.411984 0.717592
vt 0.228374 0.702795
vt 0.228374 0.632050
vt 0.499454 0.514755
vt 0.328327 0.514755
vt 0.328327 0.178568
vt 0.499454 0.178568
vt 0.462756 0.207520
vt 0.462756 0.126211
vt 0.524539 0.126211
vt 0.524539 0.207520
vt 0.281549 0.519068
vt 0.281549 0.911926
vt 0.219776 0.911926
vt 0.219776 0.519068
vt 0.462756 0.370138
vt 0.462756 0.288829
vt 0.524539 0.288829
vt 0.524539 0.370139
vt 0.471833 0.344725
vt 0.310040 0.344725
vt 0.310040 0.143349
vt 0.471833 0.143349
vt 0.855137 0.314481
vt 0.855137 0.177759
vt 0.945894 0.177759
vt 0.945894 0.314481
vt 0.146435 0.579389
vt 0.146435 0.716087
vt 0.055678 0.716087
vt 0.055678 0.579389
vt 0.526948 0.460085
vt 0.526948 0.499260
vt 0.436191 0.499260
vt 0.436191 0.460085
vt 0.376640 0.538773
vt 0.249168 0.538773
vt 0.249168 0.228472
vt 0.376640 0.228472
vt 0.198533 0.542187
vt 0.198533 0.243046
vt 0.309211 0.243046
vt 0.309211 0.542187
vt 0.419870 0.542187
vt 0.419870 0.841329
vt 0.309212 0.841329
vt 0.309212 0.542188
vt 0.713065 0.546945
vt 0.713065 0.611975
vt 0.602387 0.611975
vt 0.602387 0.546945
vt 0.530123 0.647728
vt 0.702426 0.647728
vt 0.702426 0.819504
vt 0.530123 0.819504
vt 0.288944 0.746131
vt 0.288944 0.772373
vt 0.284953 0.772373
vt 0.284953 0.746131
vt 0.245511 0.634079
vt 0.245511 0.542492
vt 0.249502 0.542492
vt 0.249502 0.634079
vt 0.284932 0.683592
vt 0.284932 0.657350
vt 0.288923 0.657350
vt 0.288923 0.683592
vt 0.245511 0.817252
vt 0.245511 0.725666
vt 0.249502 0.725666
vt 0.249502 0.817252
vt 0.530123 0.304174
vt 0.702426 0.304174
vt 0.702426 0.475951
vt 0.530123 0.475951
vt 0.146435 0.305993
vt 0.146435 0.442691
vt 0.055678 0.442691
vt 0.055678 0.305993
vt 0.855137 0.587924
vt 0.855137 0.451202
vt 0.945894 0.451202
vt 0.945894 0.587924
vt 0.471833 0.747477
vt 0.310040 0.747477
vt 0.310040 0.546101
vt 0.471833 0.546101
vt 0.307266 0.273911
vt 0.307266 0.474914
vt 0.389380 0.474914
vt 0.389380 0.308098
vt 0.342856 0.691839
vt 0.340990 0.497828
vt 0.395637 0.497828
vt 0.395637 0.650813
vt 0.253492 0.634063
vt 0.253492 0.725634
vt 0.249502 0.725634
vt 0.249502 0.634063
vt 0.310031 0.255479
vt 0.304236 0.489019
vt 0.224851 0.489121
vt 0.230645 0.255581
vt 0.572384 0.688154
vt 0.590137 0.486847
vt 0.684868 0.486766
vt 0.667115 0.688073
vt 0.685356 0.497888
vt 0.435134 0.498339
vt 0.434672 0.016149
vt 0.684904 0.026385
vt 0.680016 0.187429
vt 0.528202 0.190885
vt 0.527222 0.076457
vt 0.729855 0.081327
vt 0.870113 0.675918
vt 0.870113 0.474914
vt 0.787999 0.474914
vt 0.787999 0.641731
vt 0.241446 0.501003
vt 0.462143 0.498992
vt 0.463984 0.954505
vt 0.243287 0.956517
vt 0.675119 0.303817
vt 0.675119 0.497828
vt 0.620473 0.497828
vt 0.620473 0.344842
vt 0.382704 0.821023
vt 0.534529 0.817567
vt 0.535860 0.931988
vt 0.332972 0.927123
vt 0.034169 0.502892
vt 0.035954 0.944512
vt 0.822637 0.193741
vt 0.831443 0.127473
vt 0.568986 0.788713
vt 0.663717 0.788632
vt 0.471833 0.948852
vt 0.310040 0.948852
vt 0.146435 0.169295
vt 0.055678 0.169295
vt 0.245511 0.908839
vt 0.249502 0.908839
vt 0.935462 0.489082
vt 0.935099 0.110560
vt 0.322820 0.022101
vt 0.243434 0.022203
vt 0.253492 0.542492
vt 0.249502 0.542492
vt 0.855137 0.724645
vt 0.945895 0.724645
vt 0.530123 0.132397
vt 0.702426 0.132397
vt 0.495406 0.486928
vt 0.487793 0.285505
vt 0.402205 0.021999
vt 0.389416 0.255377
vt 0.383622 0.488917
vt 0.399079 0.722237
vt 0.474254 0.788794
vt 0.477653 0.688235
vt 0.573962 0.536985
vt 0.573963 0.943423
vt 0.402206 0.838725
vt 0.471802 0.084323
vt 0.482038 0.465939
vt 0.465564 0.857858
vt 0.498513 0.074019
vt 0.424953 0.067048
vt 0.573962 0.130547
vt 0.504141 0.130547
vt 0.460302 0.043478
vt 0.680999 0.041466
vt 0.935825 0.867604
vt 0.685809 0.969391
vt 0.435596 0.980530
vt 0.185594 0.970293
vt 0.032384 0.061272
vt 0.239605 0.045489
vt 0.419870 0.243046
vt 0.309211 0.243046
vt 0.198533 0.841329
vt 0.309211 0.841329
vt 0.376640 0.849075
vt 0.249168 0.849075
vt 0.281549 0.126211
vt 0.219776 0.126211
vt 0.499454 0.850941
vt 0.328327 0.850941
vt 0.228374 0.145159
vt 0.120579 0.172425
vt 0.219776 0.126211
vt 0.157992 0.126211
vt 0.434320 0.130547
vt 0.060773 0.915907
vt 0.538478 0.007246
vt 0.560889 0.000000
vt 0.351393 0.060076
vt 0.888247 0.053471
vt 0.318713 0.839134
vt 0.326681 0.881242
vt 0.670581 0.850941
vt 0.670581 0.514755
vt 0.504111 0.849075
vt 0.504111 0.538773
vt 0.633626 0.546101
vt 0.633626 0.344725
vt 0.357820 0.132397
vt 0.357820 0.304174
vt 0.357820 0.475951
vt 0.357820 0.647728
vt 0.633625 0.948853
vt 0.633626 0.747477
vt 0.284932 0.709835
vt 0.288923 0.709835
vt 0.288944 0.719888
vt 0.284953 0.719888
vt 0.357820 0.819504
vt 0.713065 0.481915
vt 0.602387 0.481915
vt 0.504111 0.228472
vt 0.526948 0.420910
vt 0.436191 0.420910
vt 0.633626 0.143349
vt 0.462756 0.451447
vt 0.524539 0.451448
vt 0.462756 0.288829
vt 0.524539 0.288829
vt 0.670581 0.178568
vt 0.411984 0.546509
vt 0.228374 0.561306
vt 0.731149 0.316242
vt 0.914759 0.301445
vt 0.823743 0.481915
vt 0.713065 0.481915
vt 0.345434 0.499260
vt 0.436191 0.499260
vn -0.0256 -0.9964 -0.0814
vn 0.0551 -0.1112 0.9923
vn -0.9232 -0.3844 0.0000
vn 0.0284 -0.9996 0.0000
vn 0.9735 -0.1920 0.1244
vn 0.0533 0.1434 -0.9882
vn -0.8250 0.5651 -0.0000
vn 0.0466 -0.9954 0.0839
vn -0.7728 -0.6347 -0.0000
vn 0.0466 -0.9989 -0.0101
vn 0.0000 1.0000 -0.0000
vn 0.5611 0.7416 0.3677
vn -0.4677 0.7770 -0.4213
vn 0.7644 0.6385 -0.0892
vn 0.0000 -1.0000 0.0000
vn -0.0551 0.1112 0.9923
vn 0.1499 0.2712 0.9508
vn -0.1500 -0.2709 0.9508
vn 0.9734 0.1925 -0.1242
vn 0.9580 -0.2868 0.0000
vn 0.9580 0.2868 0.0000
vn 0.9862 -0.1654 0.0000
vn 0.2033 -0.2759 -0.9394
vn -0.2034 0.2755 -0.9395
vn -0.0540 -0.1398 -0.9887
vn 0.0000 0.2401 0.9707
vn -0.9232 0.3844 0.0000
vn -0.9605 -0.1985 -0.1949
vn -0.9606 0.1977 0.1952
vn 0.9860 0.1667 0.0000
vn 0.0000 0.2466 -0.9691
vn 0.0000 -0.2515 0.9678
vn 0.0000 0.2744 -0.9616
vn -0.9858 0.1677 0.0000
vn -0.9870 0.1609 0.0000
vn 0.0000 -0.2356 -0.9719
vn 0.0000 0.2969 0.9549
vn 0.9862 0.1653 0.0000
vn -0.9858 -0.1677 0.0000
vn 0.0000 0.0000 -1.0000
vn 0.0000 -0.0000 1.0000
vn 0.1081 0.8043 -0.5844
vn -0.1023 0.8055 0.5837
vn 0.0317 0.9995 -0.0008
vn 0.0056 -0.9985 0.0550
vn -0.0139 -0.9983 -0.0563
vn -0.0551 -0.1112 0.9923
vn -0.0284 -0.9996 0.0000
vn -0.0540 0.1398 -0.9887
vn -0.0256 -0.9964 0.0814
vn -0.4691 0.7755 0.4226
vn -0.1020 0.8074 -0.5811
vn -0.0244 0.9997 -0.0008
vn 0.0056 -0.9985 -0.0550
vn 0.0576 -0.9943 -0.0899
vn 0.0751 0.9971 0.0096
vn 0.5851 0.7312 -0.3507
vn 0.0545 0.1139 0.9920
vn 0.0540 -0.1398 -0.9887
vn 0.1085 0.8023 0.5869
vn -0.0139 -0.9983 0.0563
vn 0.1123 -0.4577 0.8820
vn 0.7601 -0.4017 -0.5109
vn -0.1152 -0.4630 -0.8789
vn -0.6712 -0.4286 0.6047
vn -0.1154 -0.4605 0.8801
vn 0.1121 -0.4602 -0.8807
vn 0.9414 -0.3188 -0.1097
vn -0.6707 -0.4303 -0.6041
vn 0.7325 -0.4119 0.5420
vn -0.9663 -0.2573 -0.0000
vn 0.9410 -0.3203 0.1089
vn 0.0763 0.9970 -0.0097
vn -0.0244 0.9997 0.0008
vn 0.0317 0.9995 0.0008
vn 0.7629 0.6404 0.0884
vn 0.0440 -0.9990 0.0100
vn -0.7730 -0.6344 -0.0000
vn 0.9860 -0.1667 0.0000
vn -0.9870 -0.1609 0.0000
vn 0.0000 -0.2744 -0.9616
vn 0.0000 -0.2969 0.9549
vn 0.9862 -0.1653 0.0000
vn 0.0000 0.2356 -0.9719
vn 0.0000 0.2515 0.9678
vn 0.0000 -0.2466 -0.9691
vn -0.9606 -0.1977 0.1952
vn -0.9605 0.1985 -0.1949
vn 0.0000 -0.2401 0.9707
vn -0.2034 -0.2755 -0.9395
vn 0.2033 0.2759 -0.9394
vn 0.9862 0.1654 0.0000
vn 0.9734 -0.1925 -0.1242
vn -0.1500 0.2709 0.9508
vn 0.1499 -0.2712 0.9508
vn 0.9735 0.1920 0.1244
usemtl Material
s off
f 74/1/1 5/2/1 12/3/1 75/4/1
f 81/5/2 4/6/2 20/7/2 85/8/2
f 107/9/3 8/10/3 30/11/3 117/12/3
f 128/13/4 110/14/4 4/15/4 81/16/4
f 133/17/5 4/18/5 24/19/5 138/20/5
f 82/21/6 1/22/6 27/23/6 86/24/6
f 130/25/7 97/26/7 14/27/7 114/28/7
f 90/29/8 3/30/8 9/31/8 91/32/8
f 109/33/9 7/34/9 10/35/9 112/36/9
f 108/37/10 1/38/10 11/39/10 111/40/10
f 126/41/11 114/42/11 14/43/11 68/44/11
f 106/45/12 99/46/12 13/47/12 92/48/12
f 104/49/13 98/50/13 16/51/13 76/52/13
f 129/53/14 100/54/14 15/55/14 113/56/14
f 69/57/15 18/58/15 46/59/15 72/60/15
f 66/61/16 7/62/16 18/63/16 69/64/16
f 133/65/17 3/66/17 19/67/17 136/68/17
f 132/69/18 8/70/18 17/71/18 135/72/18
f 116/73/11 22/74/11 34/75/11 120/76/11
f 131/77/19 1/78/19 21/79/19 137/80/19
f 110/81/20 2/82/20 22/83/20 116/84/20
f 108/85/21 3/86/21 23/87/21 115/88/21
f 140/89/22 28/90/22 40/91/22 146/92/22
f 131/93/23 2/94/23 25/95/23 139/96/23
f 134/97/24 5/98/24 28/99/24 140/100/24
f 65/101/25 6/102/25 26/103/25 70/104/25
f 142/105/26 29/106/26 41/107/26 148/108/26
f 109/109/27 5/110/27 32/111/27 118/112/27
f 134/113/28 6/114/28 29/115/28 142/116/28
f 132/117/29 7/118/29 31/119/29 141/120/29
f 158/121/30 119/122/30 35/123/30 144/124/30
f 138/125/31 24/126/31 36/127/31 144/128/31
f 115/129/15 23/130/15 35/131/15 119/132/15
f 137/133/32 21/134/32 33/135/32 143/136/32
f 156/137/33 87/138/33 39/139/33 145/140/33
f 70/141/11 26/142/11 38/143/11 71/144/11
f 86/145/15 27/146/15 39/147/15 87/148/15
f 139/149/34 25/150/34 37/151/34 145/152/34
f 157/153/35 122/154/35 44/155/35 148/156/35
f 117/157/11 30/158/11 42/159/11 121/160/11
f 118/161/15 32/162/15 44/163/15 122/164/15
f 141/165/36 31/166/36 43/167/36 147/168/36
f 154/169/37 72/170/37 46/171/37 149/172/37
f 135/173/38 17/174/38 45/175/38 149/176/38
f 85/177/11 20/178/11 48/179/11 88/180/11
f 136/181/39 19/182/39 47/183/39 150/184/39
f 77/185/11 58/186/11 64/187/11 80/188/11
f 155/189/37 96/190/37 63/191/37 151/192/37
f 78/193/15 60/194/15 62/195/15 79/196/15
f 94/197/11 59/198/11 61/199/11 95/200/11
f 153/201/33 79/202/33 62/203/33 152/204/33
f 89/205/40 49/206/40 59/207/40 94/208/40
f 90/209/41 50/210/41 57/211/41 93/212/41
f 93/213/15 57/214/15 63/215/15 96/216/15
f 105/217/42 101/218/42 56/219/42 84/220/42
f 103/221/43 102/222/43 55/223/43 68/224/43
f 127/225/44 123/226/44 55/227/44 92/228/44
f 66/229/45 50/230/45 53/231/45 67/232/45
f 74/233/40 52/234/40 60/235/40 78/236/40
f 125/237/15 124/238/15 51/239/15 73/240/15
f 73/241/41 51/242/41 58/243/41 77/244/41
f 82/245/46 52/246/46 54/247/46 83/248/46
f 8/70/47 73/241/47 77/244/47 17/71/47
f 107/249/48 125/237/48 73/240/48 8/250/48
f 5/98/49 74/233/49 78/236/49 28/99/49
f 7/251/50 66/229/50 67/232/50 10/252/50
f 97/253/51 103/221/51 68/224/51 14/254/51
f 146/255/33 40/256/33 79/202/33 153/201/33
f 28/257/15 78/193/15 79/196/15 40/258/15
f 17/259/11 77/185/11 80/188/11 45/260/11
f 151/192/37 63/191/37 72/170/37 154/169/37
f 59/198/11 70/141/11 71/144/11 61/199/11
f 49/206/40 65/101/40 70/104/40 59/207/40
f 50/210/41 66/61/41 69/64/41 57/211/41
f 57/214/15 69/57/15 72/60/15 63/215/15
f 101/218/52 104/49/52 76/52/52 56/219/52
f 123/226/53 126/41/53 68/44/53 55/227/53
f 52/246/54 74/1/54 75/4/54 54/247/54
f 1/38/55 82/245/55 83/248/55 11/39/55
f 113/261/56 127/225/56 92/228/56 13/262/56
f 100/263/57 105/217/57 84/220/57 15/264/57
f 19/265/15 93/213/15 96/216/15 47/266/15
f 3/66/58 90/209/58 93/212/58 19/67/58
f 2/94/59 89/205/59 94/208/59 25/95/59
f 25/267/11 94/197/11 95/200/11 37/268/11
f 150/269/37 47/270/37 96/190/37 155/189/37
f 58/186/11 85/177/11 88/180/11 64/187/11
f 60/194/15 86/145/15 87/148/15 62/195/15
f 152/204/33 62/203/33 87/138/33 156/137/33
f 102/222/60 106/45/60 92/48/60 55/223/60
f 50/230/61 90/29/61 91/32/61 53/231/61
f 52/234/40 82/21/40 86/24/40 60/235/40
f 124/238/15 128/13/15 81/16/15 51/239/15
f 51/242/41 81/5/41 85/8/41 58/243/41
f 53/271/62 91/272/62 106/45/62 102/222/62
f 11/273/63 83/274/63 105/217/63 100/263/63
f 54/275/64 75/276/64 104/49/64 101/218/64
f 10/277/65 67/278/65 103/221/65 97/253/65
f 67/278/66 53/271/66 102/222/66 103/221/66
f 83/274/67 54/275/67 101/218/67 105/217/67
f 111/279/68 11/280/68 100/54/68 129/53/68
f 75/276/69 12/281/69 98/50/69 104/49/69
f 91/272/70 9/282/70 99/46/70 106/45/70
f 112/283/71 10/284/71 97/26/71 130/25/71
f 12/285/71 112/283/71 130/25/71 98/286/71
f 9/287/72 111/279/72 129/53/72 99/288/72
f 49/289/15 89/290/15 128/13/15 124/238/15
f 15/291/73 84/292/73 127/225/73 113/261/73
f 56/293/74 76/294/74 126/41/74 123/226/74
f 6/295/48 65/296/48 125/237/48 107/249/48
f 65/296/15 49/289/15 124/238/15 125/237/15
f 84/292/75 56/293/75 123/226/75 127/225/75
f 31/297/15 118/161/15 122/164/15 43/298/15
f 29/299/11 117/157/11 121/160/11 41/300/11
f 147/301/35 43/302/35 122/154/35 157/153/35
f 21/303/15 115/129/15 119/132/15 33/304/15
f 143/305/30 33/306/30 119/122/30 158/121/30
f 7/307/27 109/109/27 118/112/27 31/308/27
f 1/78/21 108/85/21 115/88/21 21/79/21
f 4/18/20 110/81/20 116/84/20 24/19/20
f 24/309/11 116/73/11 120/76/11 36/310/11
f 99/288/76 129/53/76 113/56/76 13/311/76
f 76/294/11 16/312/11 114/42/11 126/41/11
f 3/30/77 108/37/77 111/40/77 9/31/77
f 5/313/78 109/33/78 112/36/78 12/314/78
f 98/286/7 130/25/7 114/28/7 16/315/7
f 89/290/4 2/316/4 110/14/4 128/13/4
f 6/317/3 107/9/3 117/12/3 29/318/3
f 34/319/79 143/305/79 158/121/79 120/320/79
f 42/321/80 147/301/80 157/153/80 121/322/80
f 61/323/81 152/204/81 156/137/81 95/324/81
f 48/325/82 150/269/82 155/189/82 88/326/82
f 64/327/82 151/192/82 154/169/82 80/328/82
f 38/329/81 146/255/81 153/201/81 71/330/81
f 71/330/81 153/201/81 152/204/81 61/323/81
f 88/326/82 155/189/82 151/192/82 64/327/82
f 20/331/34 136/181/34 150/184/34 48/332/34
f 18/333/83 135/173/83 149/176/83 46/334/83
f 80/328/82 154/169/82 149/172/82 45/335/82
f 30/336/84 141/165/84 147/168/84 42/337/84
f 121/322/80 157/153/80 148/156/80 41/338/80
f 27/339/39 139/149/39 145/152/39 39/340/39
f 95/324/81 156/137/81 145/140/81 37/341/81
f 22/342/85 137/133/85 143/136/85 34/343/85
f 23/344/86 138/125/86 144/128/86 35/345/86
f 120/320/79 158/121/79 144/124/79 36/346/79
f 8/347/87 132/117/87 141/120/87 30/348/87
f 5/349/88 134/113/88 142/116/88 32/350/88
f 32/351/89 142/105/89 148/108/89 44/352/89
f 6/102/90 134/97/90 140/100/90 26/103/90
f 1/22/91 131/93/91 139/96/91 27/23/91
f 26/353/92 140/89/92 146/92/92 38/354/92
f 2/82/93 131/77/93 137/80/93 22/83/93
f 7/62/94 132/69/94 135/72/94 18/63/94
f 4/6/95 133/65/95 136/68/95 20/7/95
f 3/86/96 133/17/96 138/20/96 23/87/96
