# Blender v2.82 (sub 7) OBJ File: 'house+interior_done.blend'
# www.blender.org
mtllib glassWindow.mtl
o gLASS_Plane.002
v 0.655979 3.013801 2.288965
v 0.655979 10.152140 -2.288965
v 0.655979 3.013801 -2.288965
v 0.655979 10.152140 -0.000000
v 0.655979 3.013801 -0.000000
v 0.702748 9.703153 1.067288
v 0.655979 3.013801 1.144483
v 0.655979 6.583606 2.288965
v 0.655979 6.583606 -2.288965
v 0.655979 6.583606 -0.000000
v 0.655979 6.583606 1.144483
v 0.655979 8.367873 -2.288965
v 0.658316 8.590922 0.550541
v 0.637438 8.087540 1.232509
v 0.673531 8.046780 2.286482
v 0.655979 9.260006 -2.288965
v 0.639997 9.076167 0.931913
v 0.655979 9.582465 0.632399
vt 1.000000 0.500000
vt 0.499911 1.000000
vt 0.499911 0.500000
vt 1.000000 0.250000
vt 0.499911 0.250000
vt 1.000000 0.000000
vt 0.499911 0.000000
vt 0.249955 0.250000
vt 0.249955 0.000000
vt 0.249955 0.500000
vt 0.249955 1.000000
vt 0.124978 1.000000
vt 0.124978 0.500000
vt 0.124978 0.250000
vt 0.000000 0.500000
vt 0.000000 0.250000
vt 0.000000 1.000000
vt 1.000000 1.000000
vn 1.0000 0.0000 0.0000
vn 0.9993 -0.0120 -0.0347
vn 0.9992 0.0101 0.0380
vn 1.0000 -0.0010 -0.0007
vn 0.9995 0.0324 0.0068
vn 0.9925 -0.0906 -0.0816
vn 0.9999 0.0123 0.0000
vn 1.0000 -0.0012 0.0000
vn 1.0000 0.0000 -0.0008
vn 0.9959 -0.0673 -0.0606
vn 0.9999 -0.0111 0.0043
usemtl Glass
s off
f 5/1/1 9/2/1 10/3/1
f 7/4/1 10/3/1 11/5/1
f 1/6/1 11/5/1 8/7/1
f 8/7/2 14/8/2 15/9/2
f 11/5/3 13/10/3 14/8/3
f 10/3/4 12/11/4 13/10/4
f 13/10/5 16/12/5 17/13/5
f 18/14/6 4/15/6 6/16/6
f 4/15/1 16/12/1 2/17/1
f 5/1/1 3/18/1 9/2/1
f 7/4/1 5/1/1 10/3/1
f 1/6/1 7/4/1 11/5/1
f 8/7/7 11/5/7 14/8/7
f 11/5/8 10/3/8 13/10/8
f 10/3/1 9/2/1 12/11/1
f 13/10/9 12/11/9 16/12/9
f 18/14/10 17/13/10 4/15/10
f 4/15/11 17/13/11 16/12/11
