# Blender v2.82 (sub 7) OBJ File: 'book.blend'
# www.blender.org
mtllib book.mtl
o Cube.001
v -0.706630 0.060458 -0.511359
v -0.706630 -0.060458 -0.511359
v -0.706630 0.060458 0.511359
v -0.706630 -0.060458 0.511359
v -1.533807 0.060458 -0.511359
v -1.533807 -0.060458 -0.511359
v -1.533807 0.060458 0.511359
v -1.533807 -0.060458 0.511359
v -1.540080 -0.061353 -0.541307
v -1.540080 -0.061353 0.541307
v -0.679914 -0.061353 -0.541307
v -1.540080 0.061353 0.541307
v -1.540080 0.061353 -0.541307
v -0.679914 0.061353 0.541307
v -0.679914 0.061353 -0.541307
v -0.679914 -0.061353 0.541307
v -1.552660 -0.087335 -0.541825
v -1.552660 -0.087335 0.541825
v -0.679400 -0.087335 -0.541825
v -1.552660 0.087335 0.541825
v -1.552660 0.087335 -0.541825
v -0.679400 0.087335 0.541825
v -0.679400 0.087335 -0.541825
v -0.679400 -0.087335 0.541825
vt 0.844575 0.343066
vt 0.851658 0.602096
vt 0.844575 0.600193
vt 0.511901 0.635890
vt 0.758119 0.893018
vt 0.511901 0.893018
vt 0.767433 0.007218
vt 0.775481 0.260934
vt 0.767433 0.253716
vt 0.264340 0.889606
vt 0.256291 0.635890
vt 0.264339 0.643108
vt 0.758119 0.635890
vt 1.000000 0.893018
vt 0.758119 0.893018
vt 0.000000 0.742872
vt 0.246218 1.000000
vt 0.000000 1.000000
vt 0.516126 0.316185
vt 0.259936 0.371436
vt 0.260088 0.316185
vt 0.003746 0.055251
vt 0.259936 0.000000
vt 0.259784 0.055251
vt 0.003746 0.316185
vt 0.259936 0.371436
vt 0.000000 0.371436
vt 0.836781 0.259031
vt 0.829698 0.000000
vt 0.836781 0.001903
vt 0.511901 0.635890
vt 0.510146 0.643108
vt 0.519872 0.000000
vt 0.775481 0.000000
vt 0.511901 0.896824
vt 0.256291 0.896824
vt 0.519872 0.260934
vt 0.521627 0.253716
vt 0.523325 0.340186
vt 0.779616 0.604640
vt 0.523325 0.604640
vt 0.000000 0.371436
vt 0.256907 0.717034
vt 0.000615 0.717034
vt 0.256291 0.371436
vt 0.512583 0.635890
vt 0.256291 0.635890
vt 0.516126 0.055251
vt 0.259936 0.000000
vt 0.519872 0.000000
vt 0.519872 0.371436
vt 0.790358 0.341287
vt 0.844575 0.602346
vt 0.790358 0.602221
vt 0.775481 0.000125
vt 0.829698 0.261183
vt 0.775481 0.261058
vt 0.000000 0.000000
vt 0.851658 0.341163
vt 0.758119 0.635890
vt 1.000000 0.635890
vt 0.246218 0.742872
vt 0.259784 0.316185
vt 0.829698 0.260934
vt 0.521627 0.007218
vt 0.510146 0.889606
vt 0.779616 0.340186
vt 0.256291 0.371436
vt 0.512583 0.371436
vt 0.260088 0.055251
vt 0.844575 0.341163
vt 0.829698 0.000000
vn 0.9788 0.0000 -0.2050
vn 0.0000 0.0000 1.0000
vn 0.0335 -0.9994 0.0000
vn 0.0335 0.9994 0.0000
vn 1.0000 0.0000 0.0000
vn 0.0000 0.0000 -1.0000
vn 0.0000 0.0199 0.9998
vn 0.0000 -0.0199 -0.9998
vn 0.0000 0.0199 -0.9998
vn 0.9788 0.0000 0.2050
vn 0.0000 0.9996 -0.0299
vn 0.0000 -0.9996 -0.0299
vn 0.0000 0.9996 0.0299
vn 0.0000 -0.9996 0.0299
vn 0.0000 1.0000 0.0000
vn -1.0000 0.0000 0.0000
vn 0.0000 -1.0000 0.0000
vn 0.0000 -0.0199 0.9998
vn 0.0411 0.0000 0.9992
vn 0.9998 0.0198 0.0000
vn 0.9998 -0.0198 0.0000
vn 0.0411 0.0000 -0.9992
usemtl Material.001
s off
f 6/1/1 13/2/1 5/3/1
f 3/4/2 8/5/2 4/6/2
f 1/7/3 14/8/3 3/9/3
f 4/10/4 11/11/4 2/12/4
f 1/13/5 4/14/5 2/15/5
f 5/16/6 2/17/6 6/18/6
f 10/19/7 24/20/7 16/21/7
f 13/22/8 23/23/8 15/24/8
f 9/25/9 19/26/9 17/27/9
f 7/28/10 10/29/10 8/30/10
f 2/12/11 9/31/11 6/32/11
f 1/7/12 13/33/12 15/34/12
f 4/10/13 10/35/13 16/36/13
f 3/9/14 12/37/14 7/38/14
f 21/39/15 22/40/15 23/41/15
f 20/42/16 17/43/16 18/44/16
f 19/45/17 18/46/17 17/47/17
f 12/48/18 22/49/18 20/50/18
f 12/48/19 18/51/19 10/19/19
f 16/52/20 19/53/20 11/54/20
f 15/55/21 22/56/21 14/57/21
f 9/25/22 21/58/22 13/22/22
f 6/1/1 9/59/1 13/2/1
f 3/4/2 7/60/2 8/5/2
f 1/7/3 15/34/3 14/8/3
f 4/10/4 16/36/4 11/11/4
f 1/13/5 3/61/5 4/14/5
f 5/16/6 1/62/6 2/17/6
f 10/19/7 18/51/7 24/20/7
f 13/22/8 21/58/8 23/23/8
f 9/25/9 11/63/9 19/26/9
f 7/28/10 12/64/10 10/29/10
f 2/12/11 11/11/11 9/31/11
f 1/7/12 5/65/12 13/33/12
f 4/10/13 8/66/13 10/35/13
f 3/9/14 14/8/14 12/37/14
f 21/39/15 20/67/15 22/40/15
f 20/42/16 21/68/16 17/43/16
f 19/45/17 24/69/17 18/46/17
f 12/48/18 14/70/18 22/49/18
f 12/48/19 20/50/19 18/51/19
f 16/52/20 24/71/20 19/53/20
f 15/55/21 23/72/21 22/56/21
f 9/25/22 17/27/22 21/58/22
